<?xml version="1.0" encoding="UTF-8" standalone="no"?>
<svg
   xmlns:dc="http://purl.org/dc/elements/1.1/"
   xmlns:cc="http://creativecommons.org/ns#"
   xmlns:rdf="http://www.w3.org/1999/02/22-rdf-syntax-ns#"
   xmlns:svg="http://www.w3.org/2000/svg"
   xmlns="http://www.w3.org/2000/svg"
   viewBox="0 0 352.95999 45.546665"
   height="45.546665"
   width="352.95999"
   xml:space="preserve"
   id="svg2"
   version="1.1"><metadata
     id="metadata8"><rdf:RDF><cc:Work
         rdf:about=""><dc:format>image/svg+xml</dc:format><dc:type
           rdf:resource="http://purl.org/dc/dcmitype/StillImage" /></cc:Work></rdf:RDF></metadata><defs
     id="defs6" /><g
     transform="matrix(1.3333333,0,0,-1.3333333,0,45.546667)"
     id="g10"><g
       transform="scale(0.1)"
       id="g12"><path
         id="path14"
         style="fill:#c5193b;fill-opacity:1;fill-rule:nonzero;stroke:none"
         d="M 616.766,332.402 V 270.137 H 449.227 V 202.406 H 603.508 V 139.66 H 449.227 V 9.11328 H 368.566 V 332.402 h 248.2" /><path
         id="path16"
         style="fill:#c5193b;fill-opacity:1;fill-rule:nonzero;stroke:none"
         d="M 893.949,332.402 V 270.137 H 726.367 V 202.406 H 880.645 V 139.66 H 726.367 V 9.11328 H 645.801 V 332.402 h 248.148" /><path
         id="path18"
         style="fill:#c5193b;fill-opacity:1;fill-rule:nonzero;stroke:none"
         d="m 960.328,105.973 c 8.18,-9.1644 15.074,-16.5394 31.133,-25.2074 21.489,-11.5039 43.529,-15.5273 62.339,-15.5273 32.02,0 59.49,15.039 59.49,37.5777 0,25.61 -32.51,29.7 -56.35,32.981 -17.9,2.254 -35.81,4.5 -53.08,8.183 -19.692,4.106 -87.055,18.329 -87.055,87.918 0,83.329 74.16,108.09 130.105,108.09 74.65,0 114.92,-36.117 142.82,-61.328 l -59.6,-42.676 c -10.04,10.082 -19.19,18.797 -31.93,26.176 -11.41,6.406 -32.09,14.156 -52.66,14.156 -32.03,0 -48.091,-18.238 -48.091,-33.89 0,-24.692 27.411,-28.367 41.191,-30.235 34.28,-4.097 80.56,-12.863 98.96,-19.199 37.03,-13.707 55.77,-42.656 55.77,-79.277 0,-23.3127 -8.66,-48.9611 -25.61,-68.6642 -29.26,-33.8906 -76.04,-43.47658 -121.25,-43.47658 -91.213,0 -127.35,42.10158 -147.549,65.44918 l 61.367,38.9496" /><path
         id="path20"
         style="fill:#c5193b;fill-opacity:1;fill-rule:nonzero;stroke:none"
         d="m 1306.85,272.875 v -97.922 h 48.48 c 30.21,0 66.85,0.793 66.85,50.766 0,47.156 -40.68,47.156 -64.03,47.156 z m -81.14,59.527 h 130.09 c 53.1,0 100.36,0 128.65,-40.73 12.4,-18.285 18.41,-44.418 18.41,-66.348 0,-17.926 -3.77,-35.344 -11.04,-50.371 -27.88,-57.762 -87.47,-59.18 -131.41,-60.062 h -53.56 V 9.11328 h -81.14 V 332.402" /><path
         id="path22"
         style="fill:#c5193b;fill-opacity:1;fill-rule:nonzero;stroke:none"
         d="m 1611.14,271.973 v -87.446 h 66.79 c 11.41,0.426 48.54,1.317 48.54,44.5 0,41.11 -29.65,42.532 -46.68,42.946 z m -81.15,60.429 h 145.67 c 33.88,-0.488 76.03,-0.847 105.77,-32.945 15.17,-16.957 25.72,-42.598 25.72,-71.906 0,-65 -44.45,-81.043 -66.49,-89.231 L 1815.33,9.11328 h -89.24 L 1661.96,124.496 h -50.82 V 9.11328 h -81.15 V 332.402" /><path
         id="path24"
         style="fill:#c5193b;fill-opacity:1;fill-rule:nonzero;stroke:none"
         d="M 1920.05,332.402 V 9.11328 H 1839.4 V 332.402 h 80.65" /><path
         id="path26"
         style="fill:#c5193b;fill-opacity:1;fill-rule:nonzero;stroke:none"
         d="m 1948.58,332.402 h 83.81 l 70.13,-119.074 c 25.67,-45.301 33.38,-59.914 48.54,-88.316 l -3.56,207.39 h 77.32 V 9.11328 h -79.27 L 2085.08,111.285 c -29.27,48.02 -34.68,58.113 -56.73,101.16 L 2030.7,9.11328 h -82.12 V 332.402" /><path
         id="path28"
         style="fill:#c5193b;fill-opacity:1;fill-rule:nonzero;stroke:none"
         d="M 2493.04,37.4922 C 2479.67,25.1523 2452.26,0 2397.73,0 c -90.25,0 -145.6,73.2188 -145.6,168.453 0,103.969 67.31,173.016 159.36,173.149 95.99,0.046 125.98,-54.907 141.12,-74.649 l -60.13,-37.09 c -11.34,17.391 -30.14,45.832 -75.07,45.832 -61.35,0 -84.71,-50.886 -84.71,-104.961 0,-36.55 10.07,-66.39 25.63,-82.4371 12.4,-13.2617 34.37,-23.3438 59.08,-23.3438 14.69,0 31.21,3.7266 44.4,12.4375 21.1,13.711 23.95,31.0894 26.14,48.0234 h -72.39 v 61.422 h 140.72 V 7.23047 h -63.24 V 37.4922" /><path
         id="path30"
         style="fill:#c5193b;fill-opacity:1;fill-rule:nonzero;stroke:none"
         d="m 169.258,70.2578 c -55.613,0 -100.5236,44.9572 -100.5236,100.4762 0,55.606 44.9106,100.543 100.5236,100.543 55.519,0 100.586,-44.937 100.586,-100.543 0,-55.519 -45.067,-100.4762 -100.586,-100.4762 z m 0,269.7772 C 75.7813,340.035 0,264.234 0,170.734 0,77.2617 75.7813,1.53125 169.258,1.53125 c 93.472,0 169.25,75.73045 169.25,169.20275 0,93.5 -75.778,169.301 -169.25,169.301" /><path
         id="path32"
         style="fill:#c5193b;fill-opacity:1;fill-rule:nonzero;stroke:none"
         d="m 2622.77,323.707 v -7.082 h 1.47 c 1.45,0 1.99,0.039 2.78,0.07 0.94,0.02 3.97,0.184 3.97,3.485 0,0.48 -0.01,2.14 -1.78,3.035 -0.91,0.453 -1.98,0.492 -4.49,0.492 z m -4.18,3.645 h 7.18 c 3.01,-0.039 5.04,-0.039 7.02,-1.633 1.41,-1.156 2.49,-2.946 2.49,-5.578 0,-4.301 -3.17,-5.817 -4.44,-6.188 l 5.02,-9.195 h -4.82 l -4.49,8.379 h -3.78 v -8.379 h -4.18 v 22.594" /><path
         id="path34"
         style="fill:#c5193b;fill-opacity:1;fill-rule:nonzero;stroke:none"
         d="m 2626.2,298.48 c -9.61,0 -17.38,7.762 -17.38,17.36 0,9.578 7.77,17.367 17.38,17.367 9.59,0 17.37,-7.789 17.37,-17.367 0,-9.598 -7.78,-17.36 -17.37,-17.36 z m 0,38.34 c -11.58,0 -20.99,-9.39 -20.99,-20.98 0,-11.582 9.41,-20.973 20.99,-20.973 11.59,0 20.98,9.391 20.98,20.973 0,11.59 -9.39,20.98 -20.98,20.98" /></g></g></svg>