<?xml version="1.0" encoding="UTF-8" standalone="no"?>
<svg
   xmlns:dc="http://purl.org/dc/elements/1.1/"
   xmlns:cc="http://creativecommons.org/ns#"
   xmlns:rdf="http://www.w3.org/1999/02/22-rdf-syntax-ns#"
   xmlns:svg="http://www.w3.org/2000/svg"
   xmlns="http://www.w3.org/2000/svg"
   viewBox="0 0 271.33334 208.49333"
   height="208.49333"
   width="271.33334"
   xml:space="preserve"
   id="svg2"
   version="1.1"><metadata
     id="metadata8"><rdf:RDF><cc:Work
         rdf:about=""><dc:format>image/svg+xml</dc:format><dc:type
           rdf:resource="http://purl.org/dc/dcmitype/StillImage" /></cc:Work></rdf:RDF></metadata><defs
     id="defs6" /><g
     transform="matrix(1.3333333,0,0,-1.3333333,0,208.49333)"
     id="g10"><g
       transform="scale(0.1)"
       id="g12"><path
         id="path14"
         style="fill:#c51b3b;fill-opacity:1;fill-rule:nonzero;stroke:none"
         d="m 1786.75,493.5 c 0,-80.559 -50.87,-198.84 -199.46,-273.531 C 1440.63,146.23 1233.64,104.621 1017.34,104.121 801.098,103.66 594.398,144.27 448.344,217.641 300.406,291.711 248.68,410.09 248.68,493.5 v 105.152 c 0,132.809 213.679,207.493 213.679,207.493 L 382.191,695.422 787.824,842.891 645.574,733.309 1071.41,848.984 v 0 L 941.25,745.891 1371.63,848.984 1244.83,741.68 c 0,0 309.86,48.828 362.18,48.828 172.76,0 179.74,-191.856 179.74,-191.856 z m 154.43,216.07 c -0.01,0.012 -0.02,0.02 -0.03,0.032 -48.81,488.848 -443.67,854.098 -923.43,854.098 -480.169,0 -874.947,-365.25 -923.7512,-854.087 -0.0118,-0.011 -0.0196,-0.019 -0.0313,-0.035 C 41.0352,703.109 0,657.773 0,602.57 0,549.141 38.4258,504.891 88.8516,496.219 c 0.0234,0 0.0429,-0.02 0.0429,-0.039 9.8086,-665.86 1847.4455,-657.289 1857.3355,0.011 0,0.028 0.02,0.047 0.04,0.047 50.37,8.723 88.74,52.942 88.74,106.332 0,55.164 -40.98,100.477 -93.83,107" /><path
         id="path16"
         style="fill:#c51b3b;fill-opacity:1;fill-rule:nonzero;stroke:none"
         d="m 1670.48,605.113 c -3.73,12.617 -16.98,19.817 -29.6,16.086 L 1258.59,508.16 c -14.27,-4.219 -22.41,-19.211 -18.19,-33.48 v 0 c 3.46,-11.7 14.37,-19.621 26.58,-19.282 l 366.1,10.141 c 8.76,0.242 15.65,7.551 15.4,16.301 -0.26,8.781 -7.6,15.672 -16.37,15.379 l -273.08,-9.047 295.36,87.332 c 12.62,3.73 19.83,16.988 16.09,29.609 v 0" /><path
         id="path18"
         style="fill:#c51b3b;fill-opacity:1;fill-rule:nonzero;stroke:none"
         d="m 1217.21,301.512 c -1.91,-1.383 -4.9,-3.09 -9.06,-4.793 v 37.691 c 6.16,-2.101 9.73,-4.449 11.62,-6.148 3.69,-3.293 5.08,-7.071 5.08,-13.973 0,-3.141 -0.8,-7.867 -7.64,-12.777 z m -25.2,-9.41 c -5.39,-1.063 -11.78,-1.891 -19.23,-2.403 v 49.621 c 7.44,-0.109 13.84,-0.57 19.23,-1.3 z m -35.37,-2.883 c -5.92,0.019 -12.22,0.191 -19.23,0.652 v 47.609 c 6.95,0.731 13.36,1.231 19.23,1.52 z m -35.37,2.051 c -6.03,0.652 -12.47,1.492 -19.23,2.48 v 38.82 c 6.65,1.11 13.08,2.102 19.23,2.95 z m -35.37,5.089 c -6.11,1.071 -12.58,2.34 -19.23,3.692 v 26.008 c 6.54,1.312 12.96,2.543 19.23,3.691 z m -35.37,7.192 c -12.78,2.879 -26.22,6.121 -40.94,10.097 13.87,3.231 27.57,6.274 40.94,9.102 z m 200.93,60.308 c -23.37,20.813 -64.07,27.45 -124.35,20.469 -97.88,-11.418 -270.501,-60.277 -332.907,-78.539 -12.707,-3.719 -19.926,-17.078 -16.098,-29.758 3.782,-12.511 16.918,-19.652 29.469,-15.992 24.137,7.039 65.258,18.789 111.918,31.109 100.168,-33.148 179.778,-49.757 238.178,-49.757 38.3,0 67.49,7.129 87.37,21.429 17.7,12.739 27.45,31.008 27.45,51.469 0,20.461 -7.07,37.152 -21.03,49.57" /><path
         id="path20"
         style="fill:#c51b3b;fill-opacity:1;fill-rule:nonzero;stroke:none"
         d="m 797.84,476.289 v 0 c 3.769,12.141 -3.113,25.012 -15.301,28.621 L 395.277,619.414 c -11.953,3.535 -24.523,-3.187 -28.222,-15.09 v 0 c -3.774,-12.136 3.113,-25.011 15.3,-28.613 L 490.762,543.66 c -2.352,-5.34 -3.676,-11.23 -3.676,-17.441 0,-23.957 19.422,-43.379 43.375,-43.379 21.586,0 39.437,15.781 42.769,36.43 l 196.383,-58.071 c 11.953,-3.527 24.528,3.192 28.227,15.09" /></g></g></svg>