<?xml version="1.0" encoding="utf-8"?>
<!-- Generator: Adobe Illustrator 16.0.0, SVG Export Plug-In . SVG Version: 6.00 Build 0)  -->
<!DOCTYPE svg PUBLIC "-//W3C//DTD SVG 1.1//EN" "http://www.w3.org/Graphics/SVG/1.1/DTD/svg11.dtd">
<svg version="1.1" id="Layer_1" xmlns="http://www.w3.org/2000/svg" xmlns:xlink="http://www.w3.org/1999/xlink" x="0px" y="0px"
	 width="310px" height="25.46px" viewBox="0 0 310 25.46" enable-background="new 0 0 310 25.46" xml:space="preserve">
<g id="Page-1">
	<g id="american-express" transform="translate(-1.000000, 0.000000)">
		<path id="Rectangle-1" fill="#3C6FB6" d="M171.263,1.46c-1.838,0-21.32,0-32.201,0c-0.92,0-1.84,0.92-1.84,1.84v18.399
			c0,1.841,0.922,2.761,2.76,2.761c10.264,0,29.443,0,31.281,0c1.842,0,2.762-0.92,2.762-2.761V4.22
			C174.024,2.38,173.104,1.46,171.263,1.46z"/>
		<path id="Shape" fill="#FFFFFF" d="M140.331,9.884l-0.713-1.736l-0.709,1.736H140.331z M156.032,9.191
			c-0.143,0.087-0.311,0.091-0.514,0.091h-1.266V8.314h1.283c0.182,0,0.371,0.008,0.494,0.078c0.135,0.064,0.219,0.198,0.219,0.386
			C156.249,8.969,156.169,9.122,156.032,9.191C156.032,9.191,156.169,9.122,156.032,9.191L156.032,9.191L156.032,9.191z
			 M165.058,9.884l-0.719-1.736l-0.719,1.736H165.058L165.058,9.884L165.058,9.884L165.058,9.884z M148.235,11.764h-1.068
			l-0.004-3.412l-1.51,3.412h-0.914l-1.514-3.415v3.415h-2.117l-0.402-0.972h-2.168l-0.404,0.972h-1.131l1.863-4.356h1.549
			l1.771,4.124V7.407h1.699l1.363,2.955l1.252-2.955h1.734V11.764L148.235,11.764L148.235,11.764L148.235,11.764z M152.489,11.764
			h-3.479V7.407h3.479v0.907h-2.436V9.1h2.379v0.893h-2.379v0.87h2.436V11.764L152.489,11.764L152.489,11.764L152.489,11.764z
			 M157.396,8.58c0,0.694-0.465,1.054-0.734,1.161c0.229,0.087,0.424,0.24,0.516,0.367c0.146,0.217,0.172,0.41,0.172,0.799v0.856
			h-1.051l-0.004-0.55c0-0.263,0.025-0.639-0.164-0.849c-0.152-0.153-0.385-0.187-0.76-0.187h-1.117v1.585h-1.041V7.406h2.395
			c0.533,0,0.924,0.014,1.262,0.209C157.198,7.811,157.396,8.095,157.396,8.58C157.396,8.58,157.396,8.095,157.396,8.58
			L157.396,8.58L157.396,8.58z M159.062,11.764h-1.063V7.407h1.063V11.764L159.062,11.764L159.062,11.764L159.062,11.764z
			 M171.39,11.764h-1.477l-1.975-3.27v3.27h-2.121l-0.404-0.972h-2.162l-0.393,0.972h-1.219c-0.506,0-1.148-0.111-1.512-0.482
			c-0.365-0.37-0.557-0.871-0.557-1.663c0-0.646,0.115-1.237,0.563-1.703c0.336-0.349,0.863-0.509,1.58-0.509h1.01V8.34h-0.988
			c-0.379,0-0.594,0.057-0.801,0.258c-0.178,0.184-0.299,0.531-0.299,0.987c0,0.466,0.092,0.803,0.285,1.023
			c0.16,0.172,0.453,0.224,0.727,0.224h0.467l1.469-3.426h1.559l1.764,4.12v-4.12h1.586l1.83,3.034V7.406h1.066v4.357H171.39
			L171.39,11.764L171.39,11.764z M136.991,12.619h1.781l0.4-0.967h0.898l0.4,0.967h3.502V11.88l0.311,0.743h1.818l0.313-0.755v0.751
			h8.699l-0.004-1.588h0.168c0.117,0.004,0.152,0.015,0.152,0.209v1.379h4.5V12.25c0.363,0.194,0.928,0.369,1.67,0.369h1.893
			l0.406-0.967h0.898l0.395,0.967h3.648V11.7l0.553,0.919h2.924V6.543h-2.893V7.26l-0.406-0.717h-2.969V7.26l-0.371-0.717h-4.01
			c-0.67,0-1.262,0.094-1.738,0.355V6.543h-2.768v0.355c-0.303-0.271-0.715-0.355-1.176-0.355h-10.109l-0.68,1.569l-0.695-1.569
			h-3.186V7.26l-0.35-0.717h-2.715l-1.262,2.89V12.619L136.991,12.619z M174.032,15.827h-1.896c-0.189,0-0.316,0.008-0.422,0.079
			c-0.109,0.07-0.152,0.175-0.152,0.313c0,0.164,0.092,0.275,0.229,0.324c0.109,0.039,0.227,0.05,0.4,0.05l0.564,0.015
			c0.568,0.014,0.949,0.112,1.182,0.351c0.041,0.033,0.066,0.07,0.096,0.108V15.827z M174.032,18.7
			c-0.252,0.37-0.744,0.558-1.414,0.558h-2.01v-0.935h2.002c0.199,0,0.338-0.025,0.422-0.107c0.072-0.067,0.123-0.166,0.123-0.284
			c0-0.127-0.051-0.228-0.127-0.289c-0.076-0.065-0.186-0.096-0.367-0.096c-0.979-0.033-2.197,0.03-2.197-1.349
			c0-0.632,0.402-1.297,1.494-1.297h2.074v-0.867h-1.928c-0.582,0-1.004,0.139-1.303,0.355v-0.355h-2.852
			c-0.455,0-0.99,0.112-1.244,0.355v-0.355h-5.09v0.355c-0.404-0.293-1.088-0.355-1.404-0.355h-3.357v0.355
			c-0.32-0.311-1.033-0.355-1.469-0.355h-3.758l-0.859,0.93l-0.805-0.93h-5.613v6.08h5.508l0.885-0.945l0.836,0.945l3.395,0.004
			v-1.432h0.334c0.451,0.008,0.982-0.011,1.451-0.214v1.642h2.799v-1.585h0.137c0.172,0,0.189,0.008,0.189,0.18v1.405h8.506
			c0.539,0,1.105-0.139,1.418-0.39v0.39h2.699c0.561,0,1.109-0.079,1.525-0.281V18.7L174.032,18.7L174.032,18.7L174.032,18.7z
			 M169.88,16.959c0.201,0.211,0.311,0.475,0.311,0.924c0,0.938-0.586,1.375-1.637,1.375h-2.027v-0.935h2.02
			c0.197,0,0.338-0.025,0.426-0.107c0.072-0.067,0.123-0.166,0.123-0.284c0-0.127-0.055-0.228-0.127-0.289
			c-0.08-0.065-0.189-0.096-0.371-0.096c-0.975-0.033-2.193,0.03-2.193-1.349c0-0.632,0.398-1.297,1.49-1.297h2.086v0.927h-1.91
			c-0.189,0-0.313,0.008-0.416,0.079c-0.115,0.069-0.158,0.176-0.158,0.313c0,0.164,0.098,0.275,0.229,0.324
			c0.111,0.039,0.229,0.05,0.406,0.05l0.561,0.015C169.255,16.623,169.644,16.721,169.88,16.959
			C169.88,16.959,169.644,16.721,169.88,16.959L169.88,16.959L169.88,16.959z M160.483,16.689c-0.141,0.084-0.314,0.092-0.516,0.092
			h-1.266v-0.979h1.283c0.186,0,0.371,0.003,0.498,0.078c0.135,0.07,0.215,0.206,0.215,0.393
			C160.698,16.458,160.616,16.608,160.483,16.689C160.483,16.689,160.616,16.608,160.483,16.689L160.483,16.689L160.483,16.689z
			 M161.11,17.232c0.232,0.085,0.422,0.239,0.51,0.366c0.148,0.212,0.17,0.411,0.172,0.795v0.864h-1.045v-0.546
			c0-0.263,0.025-0.649-0.168-0.853c-0.152-0.156-0.385-0.193-0.764-0.193h-1.113v1.592h-1.047V14.9h2.404
			c0.527,0,0.91,0.022,1.254,0.206c0.328,0.198,0.535,0.47,0.535,0.967C161.849,16.769,161.386,17.123,161.11,17.232
			C161.11,17.232,161.386,17.123,161.11,17.232L161.11,17.232L161.11,17.232z M162.427,14.9h3.477v0.901h-2.439v0.792h2.379v0.889
			h-2.379v0.867l2.439,0.005v0.903h-3.477V14.9L162.427,14.9L162.427,14.9L162.427,14.9z M155.399,16.91h-1.346v-1.108h1.359
			c0.375,0,0.637,0.153,0.637,0.534C156.05,16.712,155.8,16.91,155.399,16.91L155.399,16.91L155.399,16.91L155.399,16.91z
			 M153.017,18.861l-1.598-1.775l1.598-1.718V18.861L153.017,18.861L153.017,18.861L153.017,18.861z M148.89,18.35h-2.561v-0.868
			h2.285v-0.889h-2.285v-0.791h2.609l1.139,1.269L148.89,18.35L148.89,18.35L148.89,18.35L148.89,18.35z M157.169,16.336
			c0,1.211-0.904,1.46-1.814,1.46h-1.299v1.462h-2.023l-1.283-1.442l-1.332,1.442h-4.125V14.9h4.188l1.281,1.428l1.324-1.428h3.328
			C156.239,14.9,157.169,15.129,157.169,16.336C157.169,16.336,157.169,15.129,157.169,16.336L157.169,16.336L157.169,16.336z"/>
	</g>
</g>
<g id="round-rect">
	<g id="maestro_card_payment">
		<g id="logo-2" transform="translate(31.000000, 25.000000)">
			<path id="path618" fill="#4586C6" d="M167.172-3.517c2.324-2.104,3.775-5.145,3.775-8.525c0-3.379-1.451-6.418-3.775-8.522
				c-2.032-1.85-4.748-2.976-7.703-2.976c-6.354,0-11.495,5.147-11.495,11.498c0,6.354,5.142,11.502,11.495,11.502
				C162.424-0.54,165.14-1.669,167.172-3.517"/>
			<path id="path620" fill="#4687C7" d="M167.172-3.517c2.324-2.104,3.775-5.145,3.775-8.525c0-3.379-1.451-6.418-3.775-8.522
				V-3.517z"/>
			<path id="path624" fill="#CB4738" d="M174.894-23.54c-2.972,0-5.688,1.126-7.722,2.976c-0.41,0.379-0.803,0.785-1.161,1.22h2.323
				c0.324,0.385,0.615,0.792,0.871,1.217h-4.065c-0.238,0.39-0.461,0.796-0.667,1.217h5.398c0.188,0.395,0.342,0.801,0.479,1.219
				h-6.354c-0.138,0.395-0.257,0.802-0.343,1.218h7.039c0.171,0.784,0.256,1.6,0.256,2.434c0,1.276-0.205,2.507-0.598,3.653h-6.354
				c0.137,0.418,0.29,0.824,0.477,1.219h5.398c-0.205,0.42-0.41,0.826-0.666,1.217h-4.065c0.257,0.426,0.563,0.832,0.871,1.217
				h2.323c-0.359,0.434-0.752,0.84-1.162,1.219c2.033,1.848,4.75,2.977,7.722,2.977c6.335,0,11.478-5.148,11.478-11.501
				C186.371-18.392,181.229-23.54,174.894-23.54"/>
			<path id="path626" fill="#231F20" d="M185.158-5.653h0.053c0.017,0,0.033,0.002,0.033-0.004c0.017-0.01,0.034-0.025,0.034-0.037
				c0-0.016-0.018-0.029-0.034-0.035c0-0.008-0.033-0.006-0.033-0.006h-0.053V-5.653L185.158-5.653z M185.158-5.466h-0.067v-0.328
				h0.137c0.033,0,0.051,0,0.084,0.018c0.019,0.018,0.034,0.049,0.034,0.082c0,0.037-0.017,0.07-0.051,0.082l0.051,0.146h-0.085
				l-0.033-0.131h-0.07L185.158-5.466L185.158-5.466L185.158-5.466z M185.211-5.347c0.153,0,0.29-0.127,0.29-0.283
				s-0.137-0.283-0.29-0.283c-0.155,0-0.273,0.127-0.273,0.283S185.056-5.347,185.211-5.347L185.211-5.347z M184.835-5.63
				c0-0.207,0.17-0.371,0.376-0.371c0.204,0,0.374,0.164,0.374,0.371c0,0.205-0.17,0.371-0.374,0.371
				C185.005-5.259,184.835-5.425,184.835-5.63L184.835-5.63z"/>
			<path id="path628" fill="#231F20" d="M157.676-8.841h-1.453l0.854-4.483l-1.964,4.483h-1.196l-0.239-4.457l-0.957,4.457h-1.313
				l1.108-5.83h2.272l0.034,3.609l1.572-3.609h2.407L157.676-8.841"/>
			<path id="path630" fill="#231F20" d="M173.645-8.899c-0.393,0.107-0.699,0.154-1.023,0.154c-0.734,0-1.128-0.367-1.128-1.041
				c0-0.135,0-0.275,0.034-0.428l0.086-0.465l0.068-0.373l0.666-3.619h1.417l-0.205,1.088h0.735l-0.205,1.15h-0.734l-0.377,1.979
				c-0.017,0.09-0.017,0.152-0.017,0.197c0,0.246,0.137,0.354,0.478,0.354c0.172,0,0.291-0.016,0.394-0.045L173.645-8.899"/>
			<path id="path632" fill="#231F20" d="M167.975-12.086c0,0.601,0.325,1.011,1.094,1.321c0.58,0.24,0.684,0.311,0.684,0.523
				c0,0.297-0.256,0.43-0.838,0.43c-0.426,0-0.837-0.057-1.298-0.188l-0.188,1.094l0.051,0.01l0.272,0.049
				c0.086,0.014,0.206,0.029,0.377,0.043c0.342,0.025,0.614,0.039,0.803,0.039c1.52,0,2.221-0.502,2.221-1.582
				c0-0.65-0.29-1.033-1.008-1.32c-0.615-0.242-0.684-0.293-0.684-0.515c0-0.257,0.239-0.388,0.701-0.388
				c0.289,0,0.683,0.028,1.041,0.072l0.205-1.098c-0.375-0.052-0.939-0.094-1.264-0.094
				C168.521-13.688,167.958-12.96,167.975-12.086"/>
			<path id="path634" fill="#231F20" d="M161.33-10.954c-0.152-0.016-0.221-0.02-0.324-0.02c-0.803,0-1.213,0.242-1.213,0.721
				c0,0.295,0.205,0.484,0.514,0.484C160.887-9.769,161.314-10.251,161.33-10.954L161.33-10.954L161.33-10.954z M162.304-8.841
				h-1.196l0.035-0.494c-0.376,0.391-0.854,0.576-1.504,0.576c-0.785,0-1.314-0.529-1.314-1.295c0-1.156,0.922-1.829,2.51-1.829
				c0.172,0,0.377,0.012,0.582,0.037c0.051-0.156,0.067-0.224,0.067-0.309c0-0.314-0.257-0.432-0.923-0.432
				c-0.409,0-0.87,0.051-1.195,0.134l-0.188,0.048l-0.137,0.03l0.205-1.064c0.717-0.183,1.178-0.252,1.707-0.252
				c1.23,0,1.879,0.48,1.879,1.392c0,0.233-0.018,0.411-0.119,0.938l-0.291,1.682l-0.05,0.303l-0.034,0.24l-0.035,0.166
				L162.304-8.841L162.304-8.841z"/>
			<path id="path636" fill="#231F20" d="M166.301-11.765c0-0.1,0.018-0.181,0.018-0.242c0-0.385-0.256-0.612-0.684-0.612
				c-0.46,0-0.786,0.304-0.905,0.851L166.301-11.765L166.301-11.765z M167.002-8.944c-0.496,0.131-0.975,0.193-1.47,0.191
				c-1.606,0-2.426-0.729-2.426-2.123c0-1.628,1.06-2.826,2.494-2.826c1.179,0,1.931,0.671,1.931,1.724
				c0,0.351-0.052,0.688-0.188,1.171h-2.835c-0.018,0.072-0.018,0.104-0.018,0.148c0,0.549,0.427,0.83,1.264,0.83
				c0.513,0,0.975-0.092,1.486-0.299L167.002-8.944L167.002-8.944z"/>
			<path id="path638" fill="#231F20" d="M180.803-11.558c0-0.495-0.205-0.966-0.786-0.966c-0.733,0-1.177,0.866-1.177,1.626
				c0,0.643,0.307,1.074,0.818,1.064c0.309,0,0.975-0.422,1.095-1.16C180.785-11.163,180.803-11.353,180.803-11.558L180.803-11.558z
				 M182.255-10.991c-0.205,1.578-1.315,2.275-2.784,2.275c-1.606,0-2.255-0.98-2.255-2.184c0-1.682,1.093-2.819,2.801-2.819
				c1.487,0,2.271,0.937,2.271,2.14C182.288-11.286,182.288-11.267,182.255-10.991L182.255-10.991z"/>
			<path id="path640" fill="#FFFFFF" d="M182.733-9.569h0.051c0,0,0.017,0,0.033-0.008c0.019-0.008,0.019-0.023,0.019-0.037
				c0-0.012,0-0.025-0.019-0.033c0-0.006-0.033-0.006-0.051-0.006h-0.033V-9.569L182.733-9.569z M182.733-9.386h-0.069v-0.326h0.137
				c0.017,0,0.052,0.002,0.086,0.018c0.017,0.018,0.034,0.049,0.034,0.082c0,0.035-0.019,0.07-0.051,0.086l0.051,0.141h-0.085
				l-0.052-0.127h-0.051V-9.386L182.733-9.386z M182.784-9.267c0.153,0,0.273-0.125,0.273-0.283c0-0.154-0.12-0.279-0.273-0.279
				s-0.29,0.125-0.29,0.279C182.494-9.392,182.631-9.267,182.784-9.267L182.784-9.267z M182.408-9.55
				c0-0.203,0.172-0.369,0.376-0.369c0.205,0,0.376,0.166,0.376,0.369c0,0.207-0.171,0.371-0.376,0.371
				C182.58-9.179,182.408-9.343,182.408-9.55L182.408-9.55z"/>
			<path id="path642" fill="#FFFFFF" d="M158.033-9.179H156.6l0.854-4.481l-1.965,4.481h-1.298l-0.239-4.453l-0.854,4.453H151.8
				l1.109-5.828h2.237l0.103,3.609l1.589-3.609h2.322L158.033-9.179"/>
			<path id="path644" fill="#FFFFFF" d="M174.005-9.233c-0.394,0.107-0.7,0.152-1.026,0.152c-0.732,0-1.127-0.367-1.127-1.039
				c0-0.135,0.017-0.275,0.035-0.426l0.084-0.465l0.068-0.377l0.666-3.619h1.419l-0.205,1.088h0.734l-0.205,1.153h-0.735
				l-0.375,1.979c-0.018,0.086-0.018,0.15-0.018,0.195c0,0.246,0.154,0.35,0.496,0.35c0.153,0,0.274-0.014,0.376-0.043
				L174.005-9.233"/>
			<path id="path646" fill="#231F20" d="M177.678-12.558l-0.035-0.149l0.291-0.743c-0.069-0.007-0.104-0.009-0.104-0.014
				c-0.085-0.016-0.119-0.025-0.137-0.025c-0.033-0.01-0.086-0.012-0.135-0.012c-0.479,0-0.803,0.208-1.248,0.769l0.154-0.844
				h-1.486l-0.871,4.735h1.418c0.188-1.086,0.273-1.705,0.393-2.219c0.188-0.853,0.82-1.241,1.281-1.154
				c0.051,0.009,0.085,0.009,0.153,0.035l0.085,0.032L177.678-12.558"/>
			<path id="path648" fill="#FFFFFF" d="M178.172-13.88c-0.12-0.047-0.137-0.047-0.154-0.051c-0.066-0.017-0.119-0.026-0.119-0.028
				c-0.051-0.007-0.103-0.013-0.153-0.013c-0.461,0-0.804,0.211-1.247,0.772l0.137-0.72h-1.299l-0.871,4.74h1.436
				c0.512-2.897,0.734-3.407,1.418-3.407c0.051,0,0.103,0.005,0.171,0.013l0.17,0.034L178.172-13.88"/>
			<path id="path650" fill="#FFFFFF" d="M168.334-12.42c0,0.599,0.341,1.013,1.109,1.323c0.582,0.234,0.667,0.305,0.667,0.521
				c0,0.295-0.257,0.428-0.819,0.428c-0.445,0-0.838-0.059-1.299-0.188l-0.205,1.094l0.068,0.012l0.256,0.047
				c0.086,0.018,0.223,0.031,0.394,0.043c0.341,0.025,0.598,0.039,0.786,0.039c1.536,0,2.236-0.5,2.236-1.582
				c0-0.65-0.29-1.031-1.024-1.319c-0.598-0.241-0.667-0.294-0.667-0.516c0-0.256,0.24-0.386,0.7-0.386
				c0.291,0,0.666,0.025,1.042,0.069l0.205-1.097c-0.376-0.052-0.939-0.095-1.28-0.095C168.897-14.024,168.334-13.296,168.334-12.42
				"/>
			<path id="path652" fill="#FFFFFF" d="M161.639-11.288c-0.154-0.018-0.223-0.02-0.324-0.02c-0.803,0-1.214,0.242-1.214,0.721
				c0,0.295,0.188,0.484,0.513,0.484C161.193-10.103,161.604-10.589,161.639-11.288L161.639-11.288L161.639-11.288z M162.68-9.179
				h-1.195l0.033-0.49c-0.357,0.391-0.854,0.574-1.502,0.574c-0.77,0-1.299-0.529-1.299-1.295c0-1.154,0.922-1.83,2.51-1.83
				c0.154,0,0.359,0.015,0.582,0.037c0.034-0.156,0.051-0.222,0.051-0.308c0-0.313-0.256-0.43-0.922-0.43
				c-0.41,0-0.872,0.049-1.18,0.131l-0.205,0.052l-0.119,0.03l0.188-1.068c0.718-0.182,1.179-0.249,1.708-0.249
				c1.229,0,1.879,0.481,1.879,1.39c0,0.233-0.018,0.411-0.103,0.94l-0.308,1.684l-0.051,0.301l-0.034,0.24l-0.017,0.164
				L162.68-9.179L162.68-9.179z"/>
			<path id="path654" fill="#FFFFFF" d="M166.608-12.1v-0.243c0-0.385-0.239-0.609-0.666-0.609c-0.462,0-0.786,0.301-0.923,0.851
				L166.608-12.1L166.608-12.1z M167.36-9.278c-0.479,0.129-0.957,0.191-1.452,0.191c-1.605,0-2.443-0.729-2.443-2.125
				c0-1.626,1.061-2.824,2.494-2.824c1.179,0,1.932,0.67,1.932,1.722c0,0.35-0.053,0.692-0.172,1.171h-2.836
				c-0.017,0.074-0.017,0.107-0.017,0.15c0,0.549,0.427,0.83,1.247,0.83c0.512,0,0.973-0.094,1.485-0.303L167.36-9.278L167.36-9.278
				z"/>
			<path id="path656" fill="#FFFFFF" d="M181.145-11.934c0-0.496-0.205-0.965-0.785-0.965c-0.736,0-1.178,0.864-1.178,1.626
				c0,0.645,0.307,1.076,0.819,1.066c0.308,0,0.972-0.422,1.092-1.16C181.128-11.538,181.145-11.728,181.145-11.934L181.145-11.934z
				 M182.631-11.327c-0.223,1.578-1.316,2.277-2.785,2.277c-1.622,0-2.271-0.982-2.271-2.186c0-1.68,1.11-2.819,2.818-2.819
				c1.486,0,2.271,0.937,2.271,2.14C182.664-11.622,182.664-11.601,182.631-11.327L182.631-11.327z"/>
		</g>
	</g>
</g>
<g id="Page-1_1_">
	<g id="Master" transform="translate(-1.000000, 0.000000)">
		<path id="Rectangle-1_1_" fill="#275798" d="M258.475,1.46c-1.842,0-21.322,0-32.201,0c-0.92,0-1.84,0.92-1.84,1.84v18.4
			c0,1.84,0.92,2.76,2.76,2.76c10.264,0,29.439,0,31.281,0c1.84,0,2.758-0.92,2.758-2.76V4.221
			C261.232,2.38,260.314,1.46,258.475,1.46z"/>
		<path id="path2268" fill="#DFAD26" d="M258.828,13.075c0.002,5.346-4.283,9.678-9.57,9.68c-5.289,0.002-9.576-4.33-9.578-9.675
			v-0.005c0-5.345,4.285-9.679,9.572-9.68c5.289-0.002,9.576,4.329,9.576,9.674V13.075
			C258.828,13.075,258.828,13.072,258.828,13.075L258.828,13.075L258.828,13.075z"/>
		<path id="path1350" fill="#BF3527" d="M236.352,3.397c-5.258,0.034-9.514,4.356-9.514,9.678c0,5.342,4.289,9.678,9.574,9.678
			c2.48,0,4.74-0.955,6.443-2.523h-0.002h0.002c0.35-0.32,0.674-0.666,0.973-1.035h-1.961c-0.262-0.32-0.502-0.652-0.715-0.996
			h3.383c0.205-0.332,0.393-0.68,0.557-1.037h-4.498c-0.152-0.332-0.287-0.672-0.4-1.018h5.301c0.318-0.965,0.492-1.996,0.492-3.068
			c0-0.712-0.076-1.405-0.221-2.073h-5.854c0.074-0.343,0.166-0.683,0.273-1.016h5.301c-0.117-0.355-0.254-0.701-0.412-1.037h-4.48
			c0.162-0.349,0.344-0.688,0.549-1.016h3.381c-0.225-0.362-0.475-0.709-0.744-1.037h-1.885c0.293-0.346,0.613-0.673,0.961-0.977
			c-1.701-1.566-3.963-2.522-6.443-2.522C236.393,3.397,236.371,3.397,236.352,3.397C236.352,3.397,236.371,3.397,236.352,3.397
			L236.352,3.397L236.352,3.397z"/>
		<path id="path4157" fill="#FFFFFF" d="M239.855,15.54l0.127-0.877c-0.07,0-0.172,0.031-0.262,0.031
			c-0.355,0-0.395-0.191-0.373-0.332l0.287-1.788h0.539l0.131-0.969h-0.508l0.104-0.603h-1.02c-0.023,0.023-0.602,3.389-0.602,3.799
			c0,0.607,0.336,0.877,0.811,0.871C239.463,15.671,239.752,15.567,239.855,15.54C239.855,15.54,239.752,15.567,239.855,15.54
			L239.855,15.54L239.855,15.54z"/>
		<path id="path4155" fill="#FFFFFF" d="M240.178,13.87c0,1.455,0.951,1.801,1.762,1.801c0.748,0,1.076-0.168,1.076-0.168
			l0.18-0.994c0,0-0.568,0.254-1.082,0.254c-1.096,0-0.904-0.826-0.904-0.826h2.072c0,0,0.135-0.667,0.135-0.939
			c0-0.679-0.336-1.507-1.455-1.507C240.936,11.49,240.178,12.607,240.178,13.87C240.178,13.87,240.178,12.607,240.178,13.87
			L240.178,13.87L240.178,13.87z M241.965,12.414c0.576,0,0.469,0.653,0.469,0.705h-1.131
			C241.303,13.053,241.41,12.414,241.965,12.414C241.965,12.414,241.41,12.414,241.965,12.414L241.965,12.414L241.965,12.414z"/>
		<path id="path4151" fill="#FFFFFF" d="M248.42,15.538l0.184-1.123c0,0-0.502,0.254-0.844,0.254c-0.723,0-1.014-0.557-1.014-1.158
			c0-1.216,0.623-1.886,1.314-1.886c0.52,0,0.938,0.295,0.938,0.295l0.166-1.091c0,0-0.619-0.254-1.148-0.254
			c-1.176,0-2.322,1.032-2.322,2.971c0,1.285,0.619,2.135,1.836,2.135C247.873,15.681,248.42,15.538,248.42,15.538L248.42,15.538
			L248.42,15.538L248.42,15.538z"/>
		<path id="path4149" fill="#FFFFFF" d="M234.248,11.507c-0.699,0-1.234,0.227-1.234,0.227l-0.148,0.888
			c0,0,0.443-0.182,1.111-0.182c0.379,0,0.656,0.043,0.656,0.355c0,0.189-0.033,0.26-0.033,0.26s-0.299-0.025-0.438-0.025
			c-0.883,0-1.809,0.38-1.809,1.526c0,0.904,0.609,1.111,0.984,1.111c0.719,0,1.029-0.471,1.047-0.473l-0.033,0.393h0.896l0.4-2.837
			C235.648,11.546,234.609,11.507,234.248,11.507L234.248,11.507L234.248,11.507L234.248,11.507z M234.467,13.817
			c0.02,0.174-0.107,0.986-0.721,0.986c-0.316,0-0.4-0.244-0.4-0.389c0-0.283,0.152-0.621,0.898-0.621
			C234.42,13.794,234.438,13.813,234.467,13.817C234.467,13.817,234.438,13.813,234.467,13.817L234.467,13.817L234.467,13.817z"/>
		<path id="path4145" fill="#FFFFFF" d="M236.602,15.646c0.23,0,1.543,0.061,1.543-1.309c0-1.281-1.215-1.028-1.215-1.543
			c0-0.255,0.197-0.336,0.561-0.336c0.145,0,0.695,0.046,0.695,0.046l0.129-0.909c0,0-0.357-0.082-0.941-0.082
			c-0.752,0-1.518,0.305-1.518,1.346c0,1.18,1.275,1.063,1.275,1.559c0,0.332-0.355,0.359-0.631,0.359
			c-0.477,0-0.904-0.164-0.906-0.158l-0.137,0.902C235.482,15.528,235.748,15.646,236.602,15.646
			C236.602,15.646,235.748,15.646,236.602,15.646L236.602,15.646L236.602,15.646z"/>
		<path id="path4139" fill="#FFFFFF" d="M256.863,10.69l-0.219,1.379c0,0-0.385-0.536-0.984-0.536c-0.934,0-1.713,1.139-1.713,2.448
			c0,0.842,0.416,1.67,1.264,1.67c0.611,0,0.949-0.43,0.949-0.43l-0.045,0.367h0.992l0.779-4.899L256.863,10.69L256.863,10.69
			L256.863,10.69L256.863,10.69z M256.391,13.381c0,0.542-0.266,1.271-0.818,1.271c-0.367,0-0.539-0.311-0.539-0.801
			c0-0.798,0.354-1.325,0.803-1.325C256.203,12.525,256.391,12.779,256.391,13.381C256.391,13.381,256.391,12.779,256.391,13.381
			L256.391,13.381L256.391,13.381z"/>
		<path id="path4133" fill="#FFFFFF" d="M228.729,15.595l0.621-3.7l0.09,3.7h0.703l1.311-3.7l-0.58,3.7h1.043l0.805-4.909h-1.613
			l-1.006,3.011l-0.053-3.011h-1.488l-0.814,4.909H228.729L228.729,15.595L228.729,15.595L228.729,15.595z"/>
		<path id="path4131" fill="#FFFFFF" d="M244.436,15.601c0.297-1.705,0.352-3.091,1.059-2.837c0.125-0.661,0.244-0.916,0.379-1.195
			c0,0-0.063-0.015-0.197-0.015c-0.455,0-0.793,0.632-0.793,0.632l0.09-0.58h-0.949l-0.637,3.995H244.436L244.436,15.601
			L244.436,15.601L244.436,15.601z"/>
		<path id="path4149_1_" fill="#FFFFFF" d="M250.773,11.507c-0.699,0-1.234,0.227-1.234,0.227l-0.148,0.888
			c0,0,0.441-0.182,1.109-0.182c0.381,0,0.656,0.043,0.656,0.355c0,0.189-0.033,0.26-0.033,0.26s-0.299-0.025-0.438-0.025
			c-0.881,0-1.809,0.38-1.809,1.526c0,0.904,0.609,1.111,0.984,1.111c0.721,0,1.029-0.471,1.047-0.473l-0.033,0.393h0.896l0.4-2.837
			C252.172,11.546,251.133,11.507,250.773,11.507L250.773,11.507L250.773,11.507L250.773,11.507z M250.992,13.817
			c0.02,0.174-0.107,0.986-0.723,0.986c-0.316,0-0.398-0.244-0.398-0.389c0-0.283,0.152-0.621,0.898-0.621
			C250.943,13.794,250.961,13.813,250.992,13.817C250.992,13.817,250.961,13.813,250.992,13.817L250.992,13.817L250.992,13.817z"/>
		<path id="path4131_1_" fill="#FFFFFF" d="M252.992,15.601c0.297-1.705,0.352-3.091,1.061-2.837
			c0.123-0.661,0.244-0.916,0.379-1.195c0,0-0.064-0.015-0.197-0.015c-0.455,0-0.795,0.632-0.795,0.632l0.092-0.58h-0.949
			l-0.637,3.995H252.992L252.992,15.601L252.992,15.601L252.992,15.601z"/>
	</g>
</g>
<g id="Page-1_2_">
	<g id="Paypal" transform="translate(-1.000000, 0.000000)">
		<path id="pal" fill="#3C6FB6" d="M134.401,6.896h-1.346c0,0,0,0-0.002,0l0,0c-0.309,0-0.621,0.23-0.708,0.522
			c-0.005,0.012-0.01,0.023-0.013,0.036c0,0-0.031,0.143-0.088,0.389l-1.848,8.161c-0.044,0.184-0.072,0.304-0.082,0.335
			l0.004,0.005c-0.063,0.285,0.113,0.52,0.4,0.547l0.005,0.005h1.397c0.306,0,0.617-0.227,0.707-0.516
			c0.004-0.015,0.01-0.027,0.014-0.041l2.018-8.887l-0.002-0.001C134.927,7.147,134.726,6.896,134.401,6.896z M127.497,14.916
			c-0.187,0.114-0.385,0.214-0.59,0.296c-0.278,0.109-0.541,0.167-0.785,0.167c-0.374,0-0.661-0.053-0.855-0.162
			c-0.195-0.104-0.297-0.285-0.293-0.546c0-0.301,0.07-0.533,0.219-0.715c0.148-0.177,0.368-0.317,0.641-0.423
			c0.271-0.09,0.605-0.163,0.992-0.217c0.343-0.042,1.021-0.118,1.107-0.119c0.088-0.001,0.145-0.047,0.106,0.179
			c-0.018,0.098-0.213,0.881-0.302,1.236C127.71,14.719,127.564,14.873,127.497,14.916
			C127.497,14.916,127.564,14.873,127.497,14.916z M130.159,9.413c-0.57-0.309-1.465-0.466-2.687-0.466
			c-0.604,0-1.213,0.047-1.823,0.139c-0.447,0.067-0.494,0.078-0.771,0.138c-0.572,0.12-0.66,0.679-0.66,0.679l-0.185,0.735
			c-0.104,0.471,0.171,0.45,0.295,0.414c0.249-0.073,0.386-0.146,0.895-0.259c0.486-0.108,1.001-0.188,1.412-0.185
			c0.603,0,1.061,0.064,1.364,0.188c0.306,0.13,0.455,0.351,0.455,0.665c0.001,0.074,0.004,0.146-0.023,0.207
			c-0.025,0.058-0.073,0.113-0.217,0.132c-0.859,0.051-1.477,0.127-2.22,0.231c-0.733,0.102-1.374,0.273-1.911,0.512
			c-0.571,0.248-0.999,0.576-1.293,0.995c-0.287,0.422-0.432,0.93-0.432,1.53c0,0.567,0.209,1.028,0.613,1.388
			c0.41,0.354,0.944,0.53,1.588,0.53c0.401-0.003,0.717-0.033,0.943-0.087c0.223-0.055,0.467-0.133,0.725-0.242
			c0.193-0.077,0.401-0.191,0.62-0.332c0.22-0.143,0.372-0.244,0.567-0.369l0.006,0.012l-0.055,0.235
			c0,0.004-0.004,0.004-0.004,0.006l0.003,0.006c-0.063,0.283,0.11,0.52,0.4,0.547l0.003,0.005h0.026l0.001,0.001
			c0.192,0,0.85,0,1.158-0.001h0.214c0.015,0,0.017-0.004,0.021-0.008c0.296-0.035,0.579-0.268,0.645-0.55l1.099-4.617
			c0.025-0.109,0.046-0.234,0.058-0.378c0.013-0.146,0.03-0.266,0.024-0.353C131.017,10.208,130.729,9.725,130.159,9.413
			L130.159,9.413z M123.542,8.362c-0.187-0.354-0.47-0.642-0.828-0.863c-0.368-0.224-0.804-0.378-1.308-0.468
			c-0.5-0.086-1.094-0.135-1.771-0.136l-3.148,0.001c-0.324,0.006-0.642,0.254-0.716,0.559l-2.117,8.967
			c-0.077,0.305,0.133,0.559,0.452,0.557l1.511-0.003c0.319,0.003,0.646-0.249,0.722-0.554l0.509-2.176
			c0.072-0.306,0.397-0.562,0.723-0.556h0.43c1.842,0,3.271-0.369,4.293-1.103c1.021-0.737,1.534-1.703,1.534-2.907
			C123.827,9.156,123.735,8.714,123.542,8.362z M120.295,11.295c-0.451,0.318-1.083,0.48-1.897,0.48h-0.375
			c-0.324,0.003-0.533-0.252-0.456-0.559l0.451-1.902c0.067-0.301,0.396-0.557,0.715-0.555l0.495-0.002
			c0.578,0.002,1.009,0.097,1.308,0.282c0.293,0.19,0.436,0.483,0.438,0.874C120.974,10.511,120.748,10.969,120.295,11.295"/>
		<path id="pay" fill="#275798" d="M112.952,8.947c-0.287,0-0.664,0.228-0.841,0.501c0,0-1.917,3.219-2.106,3.542
			c-0.101,0.173-0.206,0.063-0.223-0.002c-0.013-0.078-0.594-3.519-0.594-3.519c-0.065-0.277-0.36-0.514-0.729-0.514l-1.196,0.001
			c-0.289,0-0.469,0.227-0.404,0.5c0,0,0.914,5.073,1.092,6.267c0.088,0.661-0.01,0.778-0.01,0.778l-1.184,2.022
			c-0.173,0.275-0.079,0.5,0.209,0.5l1.385-0.002c0.287,0,0.666-0.223,0.837-0.498l5.331-8.829c0,0,0.508-0.755,0.039-0.748
			C114.237,8.951,112.952,8.947,112.952,8.947z M102.946,14.916c-0.187,0.114-0.384,0.212-0.591,0.296
			c-0.278,0.108-0.542,0.166-0.785,0.166c-0.373,0-0.661-0.052-0.855-0.161c-0.194-0.105-0.296-0.286-0.294-0.547
			c0-0.299,0.072-0.532,0.22-0.715c0.148-0.177,0.367-0.317,0.64-0.423c0.273-0.09,0.608-0.162,0.992-0.216
			c0.343-0.042,1.023-0.117,1.109-0.119c0.086-0.001,0.144-0.048,0.104,0.178c-0.016,0.098-0.213,0.882-0.302,1.237
			C103.158,14.719,103.012,14.875,102.946,14.916C102.946,14.916,103.012,14.875,102.946,14.916z M105.607,9.413
			c-0.57-0.309-1.464-0.466-2.688-0.466c-0.604,0-1.212,0.047-1.822,0.139c-0.448,0.067-0.493,0.077-0.772,0.136
			c-0.572,0.122-0.66,0.68-0.66,0.68l-0.184,0.736c-0.104,0.47,0.171,0.45,0.293,0.414c0.249-0.073,0.386-0.146,0.896-0.259
			c0.485-0.108,1.001-0.188,1.41-0.185c0.603,0,1.062,0.064,1.365,0.188c0.304,0.13,0.455,0.351,0.455,0.664
			c0.002,0.075,0.003,0.146-0.024,0.207c-0.025,0.059-0.073,0.114-0.218,0.133c-0.858,0.051-1.475,0.127-2.219,0.231
			c-0.733,0.102-1.374,0.273-1.91,0.512c-0.572,0.246-1,0.577-1.293,0.995c-0.287,0.421-0.433,0.93-0.433,1.53
			c0,0.565,0.209,1.028,0.614,1.388c0.41,0.354,0.941,0.53,1.587,0.53c0.402-0.003,0.717-0.033,0.945-0.087
			c0.223-0.055,0.467-0.133,0.724-0.242c0.194-0.077,0.4-0.191,0.62-0.332c0.22-0.143,0.373-0.244,0.568-0.369l0.006,0.012
			l-0.055,0.235c-0.001,0.003-0.003,0.004-0.003,0.006l0.001,0.003c-0.063,0.286,0.112,0.522,0.402,0.55l0.003,0.005h0.025
			l0.001,0.002c0.192,0,0.851-0.001,1.158-0.002h0.215c0.015,0,0.016-0.004,0.021-0.008c0.295-0.036,0.577-0.27,0.646-0.55
			l1.097-4.617c0.026-0.109,0.045-0.234,0.058-0.378c0.014-0.146,0.03-0.266,0.025-0.353
			C106.466,10.207,106.177,9.725,105.607,9.413z M98.736,8.362c-0.188-0.354-0.472-0.642-0.83-0.863
			c-0.366-0.224-0.803-0.378-1.309-0.468c-0.498-0.086-1.093-0.135-1.769-0.136l-3.147,0.001c-0.324,0.006-0.642,0.254-0.718,0.559
			l-2.116,8.967c-0.076,0.305,0.134,0.559,0.452,0.557l1.51-0.003c0.32,0.003,0.647-0.249,0.722-0.554l0.511-2.176
			c0.072-0.306,0.397-0.562,0.724-0.556h0.43c1.842,0,3.271-0.369,4.293-1.103c1.021-0.737,1.533-1.703,1.533-2.907
			C99.018,9.156,98.927,8.714,98.736,8.362z M95.488,11.295c-0.451,0.318-1.084,0.48-1.898,0.48h-0.374
			c-0.324,0.003-0.533-0.252-0.456-0.559l0.451-1.902c0.067-0.301,0.396-0.557,0.714-0.555l0.496-0.002
			c0.577,0.002,1.01,0.097,1.307,0.282c0.293,0.19,0.435,0.483,0.438,0.874C96.167,10.511,95.94,10.969,95.488,11.295"/>
	</g>
</g>
<g>
	<g>
		<path fill="#005197" d="M301.822,1.821c1.001,0,1.816,0.815,1.816,1.816v18.645c0,1.001-0.814,1.816-1.816,1.816h-32.657
			c-1.001,0-1.816-0.815-1.816-1.816V3.638c0-1.001,0.815-1.816,1.816-1.816H301.822 M301.822,1.46h-32.657
			c-1.203,0-2.178,0.975-2.178,2.178v18.645c0,1.203,0.975,2.178,2.178,2.178h32.657c1.203,0,2.178-0.975,2.178-2.178V3.638
			C304,2.435,303.025,1.46,301.822,1.46L301.822,1.46z"/>
	</g>
	<g>
		<polygon fill="#005197" points="280.724,17.574 282.289,8.388 284.794,8.388 283.228,17.574 		"/>
		<path fill="#005197" d="M292.31,8.614c-0.496-0.187-1.273-0.386-2.244-0.386c-2.475,0-4.217,1.246-4.232,3.032
			c-0.014,1.319,1.244,2.057,2.193,2.495c0.976,0.451,1.303,0.738,1.299,1.141c-0.006,0.615-0.778,0.896-1.498,0.896
			c-1.002,0-1.535-0.139-2.357-0.481l-0.322-0.146l-0.352,2.057c0.584,0.257,1.666,0.478,2.79,0.489c2.632,0,4.34-1.231,4.36-3.139
			c0.01-1.045-0.658-1.84-2.102-2.496c-0.877-0.425-1.413-0.709-1.407-1.139c0-0.382,0.454-0.791,1.435-0.791
			c0.818-0.013,1.412,0.166,1.873,0.352l0.227,0.106L292.31,8.614L292.31,8.614z"/>
		<path fill="#005197" d="M298.731,8.396h-1.936c-0.6,0-1.047,0.163-1.311,0.762l-3.719,8.419h2.629c0,0,0.43-1.131,0.527-1.38
			c0.287,0,2.842,0.004,3.207,0.004c0.074,0.321,0.305,1.376,0.305,1.376h2.324L298.731,8.396L298.731,8.396z M295.644,14.318
			c0.207-0.529,0.997-2.569,0.997-2.569c-0.014,0.024,0.206-0.532,0.333-0.877l0.169,0.792c0,0,0.479,2.193,0.58,2.653H295.644
			L295.644,14.318z"/>
		<path fill="#005197" d="M278.624,8.394l-2.451,6.265l-0.263-1.272c-0.455-1.469-1.878-3.059-3.468-3.854l2.242,8.035l2.648-0.004
			l3.943-9.169H278.624L278.624,8.394z"/>
		<path fill="#F4A51D" d="M273.897,8.388h-4.039l-0.03,0.191c3.142,0.761,5.22,2.598,6.082,4.807l-0.878-4.223
			C274.882,8.582,274.442,8.409,273.897,8.388L273.897,8.388z"/>
	</g>
</g>
<g>
	<path fill="#F2F2F2" d="M85.252,23.43c0,0.556-0.493,1.005-1.102,1.005h-33.92c-0.608,0-1.102-0.449-1.102-1.005V2.491
		c0-0.556,0.493-1.006,1.102-1.006h33.92c0.609,0,1.102,0.45,1.102,1.006V23.43z"/>
	<polygon fill="#26265F" points="72.986,21.056 73.844,16.037 75.216,16.037 74.357,21.056 	"/>
	<path fill="#26265F" d="M79.319,16.162c-0.27-0.098-0.699-0.208-1.225-0.208c-1.356,0-2.304,0.68-2.312,1.653
		c-0.007,0.721,0.679,1.123,1.198,1.364c0.533,0.249,0.713,0.402,0.705,0.623c0,0.339-0.421,0.491-0.816,0.491
		c-0.546,0-0.839-0.076-1.287-0.263l-0.18-0.082l-0.187,1.121c0.318,0.147,0.906,0.263,1.522,0.271c1.439,0,2.367-0.673,2.38-1.717
		c0.009-0.567-0.359-1.003-1.147-1.364c-0.478-0.228-0.769-0.381-0.769-0.616c0-0.214,0.249-0.435,0.782-0.435
		c0.451-0.009,0.775,0.09,1.024,0.193l0.124,0.056L79.319,16.162L79.319,16.162z"/>
	<path fill="#26265F" d="M82.829,16.044H81.77c-0.325,0-0.574,0.09-0.72,0.415l-2.027,4.603h1.433c0,0,0.236-0.623,0.291-0.754
		c0.159,0,1.55,0,1.751,0c0.042,0.173,0.167,0.754,0.167,0.754h1.266L82.829,16.044L82.829,16.044z M81.14,19.275
		c0.111-0.284,0.547-1.398,0.547-1.398c-0.014,0.014,0.111-0.291,0.18-0.478l0.09,0.431c0,0,0.263,1.195,0.318,1.445H81.14
		L81.14,19.275z"/>
	<path fill="#26265F" d="M71.845,16.044l-1.342,3.42l-0.14-0.692l-0.484-2.305c-0.083-0.318-0.318-0.417-0.616-0.43h-2.207
		l-0.014,0.111c0.539,0.131,1.015,0.325,1.438,0.561l1.213,4.347h1.446l2.153-5.012H71.845z"/>
	<polygon fill="#26265F" points="66.253,9.012 67.721,9.012 66.818,14.706 65.351,14.706 	"/>
	<path fill="#26265F" d="M61.168,9.012h2.247c1.43,0,1.8,0.823,1.644,1.807c-0.129,0.821-0.72,1.37-1.486,1.564l1.423,2.323h-1.842
		l-1.068-2.235l-0.354,2.235h-1.468L61.168,9.012L61.168,9.012z M62.456,10.145l-0.226,1.428h0.424c0.412,0,0.802-0.32,0.867-0.714
		l0,0c0.065-0.393-0.219-0.714-0.631-0.714H62.456L62.456,10.145z"/>
	<polygon fill="#26265F" points="72.956,9.012 74.424,9.012 73.52,14.706 72.053,14.706 	"/>
	<polygon fill="#26265F" points="75.539,9.012 78.762,9.012 78.565,10.251 76.81,10.251 76.656,11.225 78.324,11.225 78.127,12.463 
		76.459,12.463 76.299,13.469 78.054,13.469 77.858,14.706 74.635,14.706 	"/>
	<polygon fill="#26265F" points="57.073,9.012 60.295,9.012 60.099,10.251 58.345,10.251 58.189,11.225 59.858,11.225 
		59.661,12.463 57.993,12.463 57.833,13.469 59.588,13.469 59.391,14.706 56.169,14.706 	"/>
	<polygon fill="#26265F" points="68.833,9.012 72.091,9.012 71.894,10.251 70.104,10.251 69.947,11.225 71.577,11.225 
		71.379,12.463 69.751,12.463 69.394,14.706 67.928,14.706 	"/>
	<path fill="#26265F" d="M81.538,9.012h-1.913l-0.904,5.694h1.913c1.834,0,3.268-1.237,3.523-2.846
		C84.336,10.736,83.817,9.012,81.538,9.012z M82.639,11.805c-0.163,1.024-0.899,1.665-1.861,1.665c-0.129,0-0.251,0-0.393,0
		l0.511-3.219c0.106,0,0.207,0,0.303,0C82.322,10.251,82.76,11.041,82.639,11.805z"/>
	<path fill="#26265F" d="M50.192,8.236h2.716l0.322,4.137c1.796-3.108,3.622-6.102,5.462-9.04h0.885
		c-1.948,3.754-3.869,7.533-5.731,11.373h-1.993l-0.487-4.562c-0.121-1.133-0.35-1.613-1.174-1.735V8.236L50.192,8.236z"/>
	<polygon fill="#FAA71C" points="51.22,5.884 53.535,6.864 53.736,9.442 53.907,9.442 56.009,5.885 56.009,5.707 51.22,5.707 	"/>
	<polygon fill="#26265F" points="63.549,17.944 64.689,17.944 65.199,19.534 66.19,17.944 67.291,17.944 64.401,22.587 
		63.299,22.587 64.518,20.631 	"/>
	<path fill="#26265F" d="M62.34,17.868c-0.37,0-0.702,0.161-0.974,0.424l0.32-2.244h-0.949l-0.714,5.004h0.951l0.05-0.354
		c0.184,0.284,0.453,0.452,0.828,0.452c0.762,0,1.481-0.734,1.616-1.641C63.603,18.602,63.102,17.868,62.34,17.868z M62.456,19.505
		c-0.057,0.397-0.387,0.718-0.739,0.718c-0.351,0-0.59-0.322-0.532-0.718c0.058-0.397,0.387-0.717,0.738-0.717
		C62.274,18.788,62.513,19.108,62.456,19.505z"/>
</g>
<g>
	<path fill="none" stroke="#A5A4A4" stroke-miterlimit="10" d="M39.023,1.989c1.104,0.003,2,0.896,2.001,2.002V21.93
		c0,1.1-0.896,2-2.001,2.002H8.038c-1.105-0.002-2-0.902-2.003-2.002V3.991c0.002-1.105,0.898-1.999,2.003-2.002H39.023
		 M39.023,1.953H8.038C6.914,1.956,6.002,2.866,6,3.991V21.93c0.002,1.127,0.914,2.034,2.038,2.037h30.985
		c1.124-0.003,2.033-0.91,2.038-2.037V3.991C41.056,2.866,40.147,1.956,39.023,1.953L39.023,1.953z"/>
	<polygon fill="#124574" points="25.668,10.899 26.435,10.905 26.417,15.031 25.652,15.03 	"/>
	<polygon fill="#124574" points="37.613,11.711 37.615,10.944 35.697,10.938 35.684,14.3 35.682,15.067 37.6,15.075 37.602,14.311 
		36.449,14.303 36.457,13.388 37.606,13.391 37.609,12.624 36.458,12.621 36.46,11.708 	"/>
	<polygon fill="#124574" points="15.722,10.865 17.641,10.872 17.638,11.614 16.487,11.609 16.484,12.561 17.635,12.569 
		17.633,13.309 16.48,13.303 16.475,14.998 15.707,14.994 	"/>
	<polygon fill="#124574" points="20.753,10.882 22.668,10.891 22.668,11.633 21.517,11.627 21.514,12.578 22.665,12.586 
		22.662,13.326 21.511,13.326 21.504,15.017 20.738,15.015 	"/>
	<path fill="#124574" d="M11.095,10.844c-1.142-0.002-2.068,0.918-2.073,2.06c-0.007,1.141,0.917,2.068,2.056,2.072
		c1.141,0.004,2.069-0.916,2.074-2.055c0.005-1.141-0.915-2.07-2.056-2.077C11.096,10.844,11.096,10.844,11.095,10.844
		 M11.084,14.211c-0.718-0.003-1.297-0.587-1.295-1.305c0-0.719,0.586-1.298,1.304-1.295s1.297,0.586,1.295,1.304
		c-0.001,0.717-0.584,1.302-1.301,1.296C11.086,14.211,11.085,14.211,11.084,14.211"/>
	<path fill="#124574" d="M32.207,13.563c-0.316,0.644-1.094,0.905-1.736,0.588c-0.643-0.317-0.905-1.097-0.587-1.738
		c0.318-0.641,1.097-0.906,1.737-0.588c0.257,0.126,0.463,0.331,0.586,0.588h0.824c-0.32-1.097-1.463-1.728-2.558-1.409
		c-1.096,0.317-1.726,1.462-1.409,2.558c0.317,1.095,1.462,1.726,2.558,1.408c0.68-0.196,1.212-0.729,1.41-1.408h-0.824"/>
	<path fill="#124574" d="M38.656,11.082h0.082c0.028-0.004,0.056,0.003,0.079,0.02c0.02,0.016,0.031,0.038,0.029,0.063
		c0.002,0.031-0.019,0.062-0.052,0.071l0.059,0.101h-0.055l-0.05-0.094h-0.042v0.094h-0.047v-0.254H38.656z M38.703,11.124v0.079
		h0.054c0.021,0.007,0.042-0.011,0.045-0.031c0.001-0.003,0.001-0.006,0.001-0.008c0-0.016-0.009-0.028-0.021-0.034
		c-0.017-0.005-0.035-0.005-0.05,0h-0.021L38.703,11.124z"/>
	<path fill="#124574" d="M38.74,10.977c-0.13,0-0.236,0.104-0.236,0.236c0,0.131,0.106,0.236,0.236,0.236
		c0.131,0,0.237-0.105,0.237-0.236l0,0C38.978,11.081,38.872,10.977,38.74,10.977 M38.74,11.406c-0.108,0-0.195-0.085-0.195-0.193
		c0-0.111,0.087-0.196,0.195-0.196c0.109,0,0.197,0.085,0.197,0.196C38.937,11.321,38.849,11.406,38.74,11.406"/>
	<g enable-background="new    ">
		<path fill="#124574" d="M19.457,17.573v-0.158h0.573v0.499c-0.088,0.07-0.178,0.117-0.271,0.157
			c-0.093,0.036-0.188,0.054-0.287,0.054c-0.132,0-0.252-0.028-0.361-0.086c-0.108-0.056-0.189-0.139-0.245-0.245
			c-0.055-0.107-0.083-0.231-0.083-0.359c0-0.13,0.027-0.253,0.082-0.366c0.055-0.115,0.134-0.199,0.237-0.256
			c0.103-0.053,0.221-0.08,0.354-0.08c0.099,0,0.187,0.016,0.266,0.047c0.079,0.032,0.14,0.075,0.185,0.127
			c0.044,0.061,0.077,0.135,0.1,0.226l-0.159,0.043c-0.02-0.067-0.045-0.122-0.075-0.161c-0.03-0.039-0.073-0.07-0.129-0.094
			c-0.056-0.024-0.117-0.031-0.188-0.031c-0.082,0-0.152,0.009-0.211,0.033s-0.105,0.061-0.142,0.098
			c-0.037,0.04-0.065,0.084-0.085,0.133c-0.034,0.082-0.051,0.175-0.051,0.27c0,0.123,0.021,0.222,0.062,0.303
			c0.041,0.081,0.099,0.142,0.181,0.181c0.079,0.038,0.163,0.062,0.251,0.062c0.077,0,0.152-0.018,0.226-0.047
			c0.074-0.03,0.129-0.063,0.167-0.094v-0.253H19.457z"/>
	</g>
	<g enable-background="new    ">
		<path fill="#124574" d="M20.461,18.102v-1.347h0.179v1.347H20.461z"/>
	</g>
	<g enable-background="new    ">
		<path fill="#124574" d="M20.886,18.102v-1.347h0.909v0.159h-0.732v0.414h0.633v0.162h-0.633v0.611H20.886z"/>
	</g>
	<g enable-background="new    ">
		<path fill="#124574" d="M22.164,18.102v-1.188h-0.441v-0.159h1.067v0.159h-0.445v1.188H22.164z"/>
	</g>
	<g enable-background="new    ">
		<path fill="#124574" d="M24.196,17.63l0.178,0.045c-0.038,0.151-0.105,0.258-0.202,0.339c-0.098,0.072-0.216,0.111-0.356,0.111
			c-0.145,0-0.263-0.029-0.354-0.094c-0.091-0.054-0.162-0.141-0.208-0.252c-0.047-0.112-0.07-0.233-0.07-0.36
			c0-0.141,0.026-0.263,0.08-0.372c0.054-0.101,0.13-0.18,0.229-0.234c0.099-0.054,0.207-0.08,0.324-0.08
			c0.138,0,0.25,0.033,0.34,0.103c0.094,0.068,0.159,0.165,0.195,0.289l-0.176,0.046c-0.031-0.102-0.078-0.173-0.136-0.218
			c-0.059-0.046-0.134-0.063-0.224-0.063c-0.104,0-0.19,0.018-0.259,0.07c-0.07,0.049-0.119,0.117-0.147,0.199
			c-0.028,0.084-0.042,0.17-0.042,0.259c0,0.114,0.016,0.216,0.05,0.3c0.033,0.086,0.083,0.15,0.153,0.191
			c0.07,0.043,0.149,0.063,0.231,0.063c0.1,0,0.184-0.028,0.253-0.086S24.171,17.743,24.196,17.63z"/>
	</g>
	<g enable-background="new    ">
		<path fill="#124574" d="M24.558,18.102l0.518-1.347h0.191l0.551,1.347h-0.203l-0.158-0.407h-0.563l-0.147,0.407H24.558z
			 M24.946,17.548h0.457l-0.141-0.373c-0.042-0.112-0.074-0.206-0.095-0.278c-0.018,0.086-0.042,0.172-0.073,0.257L24.946,17.548z"
			/>
	</g>
	<g enable-background="new    ">
		<path fill="#124574" d="M26.048,18.102v-1.347h0.597c0.121,0,0.211,0.011,0.275,0.04c0.06,0.018,0.111,0.063,0.149,0.125
			c0.038,0.063,0.056,0.127,0.056,0.203c0,0.095-0.031,0.176-0.093,0.241c-0.064,0.065-0.158,0.104-0.287,0.125
			c0.047,0.022,0.082,0.045,0.105,0.066c0.054,0.049,0.104,0.107,0.149,0.18l0.234,0.366h-0.223l-0.179-0.275
			c-0.052-0.085-0.095-0.146-0.128-0.188c-0.034-0.046-0.064-0.076-0.09-0.093c-0.027-0.017-0.056-0.03-0.083-0.035
			c-0.021-0.005-0.053-0.008-0.099-0.008h-0.207v0.599H26.048z M26.227,17.35h0.383c0.082,0,0.146-0.009,0.191-0.025
			c0.046-0.014,0.081-0.044,0.104-0.082c0.024-0.036,0.037-0.072,0.037-0.119c0-0.064-0.023-0.117-0.069-0.158
			s-0.119-0.062-0.22-0.062h-0.426V17.35z"/>
	</g>
	<g enable-background="new    ">
		<path fill="#124574" d="M27.177,18.102v-1.347h0.463c0.105,0,0.184,0.007,0.24,0.019c0.077,0.021,0.143,0.051,0.197,0.098
			c0.071,0.064,0.122,0.136,0.157,0.229c0.035,0.093,0.056,0.2,0.056,0.32c0,0.103-0.012,0.188-0.036,0.271
			c-0.023,0.079-0.055,0.145-0.092,0.197c-0.038,0.048-0.081,0.092-0.123,0.124c-0.045,0.027-0.098,0.05-0.161,0.064
			c-0.062,0.016-0.136,0.023-0.218,0.023H27.177z M27.355,17.938h0.287c0.088,0,0.159-0.003,0.209-0.018
			c0.051-0.019,0.09-0.042,0.121-0.076c0.04-0.038,0.075-0.095,0.098-0.166s0.035-0.162,0.035-0.259c0-0.142-0.023-0.249-0.07-0.325
			s-0.101-0.127-0.167-0.152c-0.048-0.019-0.126-0.027-0.231-0.027h-0.281V17.938z"/>
	</g>
</g>
</svg>
